<mxfile host="app.diagrams.net" modified="2022-08-23T03:43:59.989Z" agent="5.0 (Windows NT 10.0; Win64; x64) AppleWebKit/537.36 (KHTML, like Gecko) Chrome/104.0.0.0 Safari/537.36" etag="QBrlYAslucLA3QrJJXfw" version="20.2.4" type="github">
  <diagram id="rMK5P2FSfmjJ5yNX_NLn" name="第 1 页">
    <mxGraphModel dx="2249" dy="762" grid="1" gridSize="10" guides="1" tooltips="1" connect="1" arrows="1" fold="1" page="1" pageScale="1" pageWidth="827" pageHeight="1169" math="0" shadow="0">
      <root>
        <mxCell id="0" />
        <mxCell id="1" parent="0" />
        <mxCell id="8s4Nu5cWzRz8xXhgNU48-3" value="" style="edgeStyle=orthogonalEdgeStyle;rounded=0;orthogonalLoop=1;jettySize=auto;html=1;" edge="1" parent="1" source="8s4Nu5cWzRz8xXhgNU48-1" target="8s4Nu5cWzRz8xXhgNU48-2">
          <mxGeometry relative="1" as="geometry" />
        </mxCell>
        <mxCell id="8s4Nu5cWzRz8xXhgNU48-1" value="登录" style="rounded=1;whiteSpace=wrap;html=1;" vertex="1" parent="1">
          <mxGeometry x="270" y="200" width="120" height="60" as="geometry" />
        </mxCell>
        <mxCell id="8s4Nu5cWzRz8xXhgNU48-5" value="" style="edgeStyle=orthogonalEdgeStyle;rounded=0;orthogonalLoop=1;jettySize=auto;html=1;" edge="1" parent="1" source="8s4Nu5cWzRz8xXhgNU48-2" target="8s4Nu5cWzRz8xXhgNU48-4">
          <mxGeometry relative="1" as="geometry" />
        </mxCell>
        <mxCell id="8s4Nu5cWzRz8xXhgNU48-7" value="" style="edgeStyle=orthogonalEdgeStyle;rounded=0;orthogonalLoop=1;jettySize=auto;html=1;" edge="1" parent="1" source="8s4Nu5cWzRz8xXhgNU48-2" target="8s4Nu5cWzRz8xXhgNU48-6">
          <mxGeometry relative="1" as="geometry" />
        </mxCell>
        <mxCell id="8s4Nu5cWzRz8xXhgNU48-21" value="" style="edgeStyle=orthogonalEdgeStyle;rounded=0;orthogonalLoop=1;jettySize=auto;html=1;" edge="1" parent="1" source="8s4Nu5cWzRz8xXhgNU48-2" target="8s4Nu5cWzRz8xXhgNU48-20">
          <mxGeometry relative="1" as="geometry" />
        </mxCell>
        <mxCell id="8s4Nu5cWzRz8xXhgNU48-2" value="CAS Filter" style="whiteSpace=wrap;html=1;rounded=1;" vertex="1" parent="1">
          <mxGeometry x="270" y="340" width="120" height="60" as="geometry" />
        </mxCell>
        <mxCell id="8s4Nu5cWzRz8xXhgNU48-15" value="" style="edgeStyle=orthogonalEdgeStyle;rounded=0;orthogonalLoop=1;jettySize=auto;html=1;" edge="1" parent="1" source="8s4Nu5cWzRz8xXhgNU48-4" target="8s4Nu5cWzRz8xXhgNU48-14">
          <mxGeometry relative="1" as="geometry" />
        </mxCell>
        <mxCell id="8s4Nu5cWzRz8xXhgNU48-4" value="Token Filter" style="whiteSpace=wrap;html=1;rounded=1;" vertex="1" parent="1">
          <mxGeometry x="270" y="480" width="120" height="60" as="geometry" />
        </mxCell>
        <mxCell id="8s4Nu5cWzRz8xXhgNU48-9" value="" style="edgeStyle=orthogonalEdgeStyle;rounded=0;orthogonalLoop=1;jettySize=auto;html=1;" edge="1" parent="1" source="8s4Nu5cWzRz8xXhgNU48-6" target="8s4Nu5cWzRz8xXhgNU48-8">
          <mxGeometry relative="1" as="geometry" />
        </mxCell>
        <mxCell id="8s4Nu5cWzRz8xXhgNU48-25" value="" style="edgeStyle=orthogonalEdgeStyle;rounded=0;orthogonalLoop=1;jettySize=auto;html=1;" edge="1" parent="1" source="8s4Nu5cWzRz8xXhgNU48-6" target="8s4Nu5cWzRz8xXhgNU48-24">
          <mxGeometry relative="1" as="geometry" />
        </mxCell>
        <mxCell id="8s4Nu5cWzRz8xXhgNU48-6" value="CAS SERVER" style="whiteSpace=wrap;html=1;rounded=1;" vertex="1" parent="1">
          <mxGeometry x="520" y="340" width="120" height="60" as="geometry" />
        </mxCell>
        <mxCell id="8s4Nu5cWzRz8xXhgNU48-11" value="" style="edgeStyle=orthogonalEdgeStyle;rounded=0;orthogonalLoop=1;jettySize=auto;html=1;" edge="1" parent="1" source="8s4Nu5cWzRz8xXhgNU48-8" target="8s4Nu5cWzRz8xXhgNU48-10">
          <mxGeometry relative="1" as="geometry" />
        </mxCell>
        <mxCell id="8s4Nu5cWzRz8xXhgNU48-8" value="LOGIN" style="whiteSpace=wrap;html=1;rounded=1;" vertex="1" parent="1">
          <mxGeometry x="520" y="480" width="120" height="60" as="geometry" />
        </mxCell>
        <mxCell id="8s4Nu5cWzRz8xXhgNU48-13" value="" style="edgeStyle=orthogonalEdgeStyle;rounded=0;orthogonalLoop=1;jettySize=auto;html=1;" edge="1" parent="1" source="8s4Nu5cWzRz8xXhgNU48-10" target="8s4Nu5cWzRz8xXhgNU48-12">
          <mxGeometry relative="1" as="geometry" />
        </mxCell>
        <mxCell id="8s4Nu5cWzRz8xXhgNU48-10" value="TICKET" style="whiteSpace=wrap;html=1;rounded=1;" vertex="1" parent="1">
          <mxGeometry x="520" y="620" width="120" height="60" as="geometry" />
        </mxCell>
        <mxCell id="8s4Nu5cWzRz8xXhgNU48-12" value="COOKIE" style="whiteSpace=wrap;html=1;rounded=1;" vertex="1" parent="1">
          <mxGeometry x="520" y="760" width="120" height="60" as="geometry" />
        </mxCell>
        <mxCell id="8s4Nu5cWzRz8xXhgNU48-14" value="token" style="whiteSpace=wrap;html=1;rounded=1;" vertex="1" parent="1">
          <mxGeometry x="270" y="620" width="120" height="60" as="geometry" />
        </mxCell>
        <mxCell id="8s4Nu5cWzRz8xXhgNU48-23" value="" style="edgeStyle=orthogonalEdgeStyle;rounded=0;orthogonalLoop=1;jettySize=auto;html=1;" edge="1" parent="1" source="8s4Nu5cWzRz8xXhgNU48-20" target="8s4Nu5cWzRz8xXhgNU48-22">
          <mxGeometry relative="1" as="geometry" />
        </mxCell>
        <mxCell id="8s4Nu5cWzRz8xXhgNU48-33" value="" style="edgeStyle=orthogonalEdgeStyle;rounded=0;orthogonalLoop=1;jettySize=auto;html=1;" edge="1" parent="1" source="8s4Nu5cWzRz8xXhgNU48-20" target="8s4Nu5cWzRz8xXhgNU48-32">
          <mxGeometry relative="1" as="geometry" />
        </mxCell>
        <mxCell id="8s4Nu5cWzRz8xXhgNU48-20" value="token/jssession" style="whiteSpace=wrap;html=1;rounded=1;fillColor=#f8cecc;strokeColor=#b85450;" vertex="1" parent="1">
          <mxGeometry x="-30" y="340" width="120" height="60" as="geometry" />
        </mxCell>
        <mxCell id="8s4Nu5cWzRz8xXhgNU48-31" value="" style="edgeStyle=orthogonalEdgeStyle;rounded=0;orthogonalLoop=1;jettySize=auto;html=1;" edge="1" parent="1" source="8s4Nu5cWzRz8xXhgNU48-22" target="8s4Nu5cWzRz8xXhgNU48-30">
          <mxGeometry relative="1" as="geometry" />
        </mxCell>
        <mxCell id="8s4Nu5cWzRz8xXhgNU48-22" value="401" style="whiteSpace=wrap;html=1;rounded=1;" vertex="1" parent="1">
          <mxGeometry x="-30" y="480" width="120" height="60" as="geometry" />
        </mxCell>
        <mxCell id="8s4Nu5cWzRz8xXhgNU48-27" value="" style="edgeStyle=orthogonalEdgeStyle;rounded=0;orthogonalLoop=1;jettySize=auto;html=1;" edge="1" parent="1" source="8s4Nu5cWzRz8xXhgNU48-24" target="8s4Nu5cWzRz8xXhgNU48-26">
          <mxGeometry relative="1" as="geometry" />
        </mxCell>
        <mxCell id="8s4Nu5cWzRz8xXhgNU48-24" value="jssession" style="whiteSpace=wrap;html=1;rounded=1;" vertex="1" parent="1">
          <mxGeometry x="720" y="340" width="120" height="60" as="geometry" />
        </mxCell>
        <mxCell id="8s4Nu5cWzRz8xXhgNU48-29" value="" style="edgeStyle=orthogonalEdgeStyle;rounded=0;orthogonalLoop=1;jettySize=auto;html=1;" edge="1" parent="1" source="8s4Nu5cWzRz8xXhgNU48-26" target="8s4Nu5cWzRz8xXhgNU48-28">
          <mxGeometry relative="1" as="geometry" />
        </mxCell>
        <mxCell id="8s4Nu5cWzRz8xXhgNU48-26" value="401" style="whiteSpace=wrap;html=1;rounded=1;" vertex="1" parent="1">
          <mxGeometry x="720" y="480" width="120" height="60" as="geometry" />
        </mxCell>
        <mxCell id="8s4Nu5cWzRz8xXhgNU48-28" value="redirt:login" style="whiteSpace=wrap;html=1;rounded=1;" vertex="1" parent="1">
          <mxGeometry x="720" y="620" width="120" height="60" as="geometry" />
        </mxCell>
        <mxCell id="8s4Nu5cWzRz8xXhgNU48-37" value="" style="edgeStyle=orthogonalEdgeStyle;rounded=0;orthogonalLoop=1;jettySize=auto;html=1;" edge="1" parent="1" source="8s4Nu5cWzRz8xXhgNU48-30" target="8s4Nu5cWzRz8xXhgNU48-36">
          <mxGeometry relative="1" as="geometry" />
        </mxCell>
        <mxCell id="8s4Nu5cWzRz8xXhgNU48-30" value="token-lgoin" style="whiteSpace=wrap;html=1;rounded=1;fillColor=#f8cecc;strokeColor=#b85450;" vertex="1" parent="1">
          <mxGeometry x="-30" y="620" width="120" height="60" as="geometry" />
        </mxCell>
        <mxCell id="8s4Nu5cWzRz8xXhgNU48-35" value="" style="edgeStyle=orthogonalEdgeStyle;rounded=0;orthogonalLoop=1;jettySize=auto;html=1;" edge="1" parent="1" source="8s4Nu5cWzRz8xXhgNU48-32" target="8s4Nu5cWzRz8xXhgNU48-34">
          <mxGeometry relative="1" as="geometry" />
        </mxCell>
        <mxCell id="8s4Nu5cWzRz8xXhgNU48-32" value="token/jssession" style="whiteSpace=wrap;html=1;rounded=1;" vertex="1" parent="1">
          <mxGeometry x="-250" y="340" width="120" height="60" as="geometry" />
        </mxCell>
        <mxCell id="8s4Nu5cWzRz8xXhgNU48-34" value="token filter" style="whiteSpace=wrap;html=1;rounded=1;fillColor=#f8cecc;strokeColor=#b85450;" vertex="1" parent="1">
          <mxGeometry x="-250" y="480" width="120" height="60" as="geometry" />
        </mxCell>
        <mxCell id="8s4Nu5cWzRz8xXhgNU48-39" value="" style="edgeStyle=orthogonalEdgeStyle;rounded=0;orthogonalLoop=1;jettySize=auto;html=1;" edge="1" parent="1" source="8s4Nu5cWzRz8xXhgNU48-36" target="8s4Nu5cWzRz8xXhgNU48-38">
          <mxGeometry relative="1" as="geometry" />
        </mxCell>
        <mxCell id="8s4Nu5cWzRz8xXhgNU48-36" value="token realm" style="whiteSpace=wrap;html=1;fillColor=#f8cecc;strokeColor=#b85450;rounded=1;" vertex="1" parent="1">
          <mxGeometry x="-30" y="760" width="120" height="60" as="geometry" />
        </mxCell>
        <mxCell id="8s4Nu5cWzRz8xXhgNU48-38" value="" style="whiteSpace=wrap;html=1;fillColor=#f8cecc;strokeColor=#b85450;rounded=1;" vertex="1" parent="1">
          <mxGeometry x="-30" y="900" width="120" height="60" as="geometry" />
        </mxCell>
      </root>
    </mxGraphModel>
  </diagram>
</mxfile>
